<?xml version="1.0" encoding="utf-8"?>
<svg xmlns="http://www.w3.org/2000/svg" version="1.1" width="1000" height="800">

<polygon points=" 0,0 800,0 800,400 0,400" style="fill:lightblue;stroke:black;stroke-width:0.15" />
<polygon points=" -10,390 810,390 810,410 -10,410" style="fill:darkgrey;stroke:black;stroke-width:0.1" />
<polygon points=" 300,290 400,290 400,390 300,390" style="fill:white;stroke:black;stroke-width:0.1" />
<polygon points=" 600,190 800,190 800,210 600,210" style="fill:brown;stroke:black;stroke-width:0.1" />
<circle cx="800" cy="170" r="20" fill="red" />
<polygon points=" 580,140 620,140 620,190 580,190" style="fill:blue;stroke:black;stroke-width:0.1" />
<polygon points=" -10,390 810,390 810,410 -10,410" style="fill:none;stroke:yellow;stroke-width:2" />
<text x="378" y="402" fill="yellow" >ground</text>
<text x="380" y="404" fill="yellow" >ground</text>
<text x="378" y="404" fill="yellow" >ground</text>
<text x="380" y="402" fill="yellow" >ground</text>
<text x="379" y="403" fill="black" >ground</text>
<polygon points=" 300,290 400,290 400,390 300,390" style="fill:white;stroke:black;stroke-width:0.1" />
<polygon points=" 300,290 400,290 400,390 300,390" style="fill:none;stroke:yellow;stroke-width:2" />
<text x="332" y="342" fill="yellow" >robot</text>
<text x="334" y="344" fill="yellow" >robot</text>
<text x="332" y="344" fill="yellow" >robot</text>
<text x="334" y="342" fill="yellow" >robot</text>
<text x="333" y="343" fill="black" >robot</text>
<polygon points=" 600,190 800,190 800,210 600,210" style="fill:none;stroke:yellow;stroke-width:2" />
<text x="675" y="202" fill="yellow" >etagere</text>
<text x="677" y="204" fill="yellow" >etagere</text>
<text x="675" y="204" fill="yellow" >etagere</text>
<text x="677" y="202" fill="yellow" >etagere</text>
<text x="676" y="203" fill="black" >etagere</text>
<circle cx="800" cy="170" r="20" fill="red" />
<polygon points=" 580,140 620,140 620,190 580,190" style="fill:blue;stroke:black;stroke-width:0.1" />
<circle cx="800" cy="170" r="20" fill="none" stroke="yellow" stroke-width="2" />
<text x="785" y="192" fill="yellow" >ball</text>
<text x="787" y="194" fill="yellow" >ball</text>
<text x="785" y="194" fill="yellow" >ball</text>
<text x="787" y="192" fill="yellow" >ball</text>
<text x="786" y="193" fill="black" >ball</text>
<polygon points=" 580,140 620,140 620,190 580,190" style="fill:none;stroke:yellow;stroke-width:2" />
<text x="589" y="167" fill="yellow" >box</text>
<text x="591" y="169" fill="yellow" >box</text>
<text x="589" y="169" fill="yellow" >box</text>
<text x="591" y="167" fill="yellow" >box</text>
<text x="590" y="168" fill="black" >box</text>


</svg>
