<?xml version="1.0" encoding="utf-8"?>
<svg xmlns="http://www.w3.org/2000/svg" version="1.1" width="1000" height="800">

<polygon points=" 0,0 800,0 800,400 0,400" style="fill:lightblue;stroke:black;stroke-width:0.15" />
<polygon points=" -10,390 810,390 810,410 -10,410" style="fill:darkgrey;stroke:black;stroke-width:0.1" />
<polygon points=" 650,290 750,290 750,390 650,390" style="fill:white;stroke:black;stroke-width:0.1" />
<polygon points=" 680,240 720,240 720,290 680,290" style="fill:white;stroke:black;stroke-width:0.1" />
<polygon points=" 700,320 760,320 760,340 700,340" style="fill:white;stroke:black;stroke-width:0.1" />
<polygon points=" 600,280 800,280 800,300 600,300" style="fill:brown;stroke:black;stroke-width:0.1" />
<circle cx="780" cy="260" r="20" fill="red" />
<polygon points=" 580,230 620,230 620,280 580,280" style="fill:blue;stroke:black;stroke-width:0.1" />
<polygon points=" 0,190 200,190 200,210 0,210" style="fill:brown;stroke:black;stroke-width:0.1" />
<circle cx="180" cy="170" r="20" fill="blue" />
<polygon points=" 0,150 50,150 50,190 0,190" style="fill:green;stroke:black;stroke-width:0.1" />
<polygon points=" 95,150 105,150 105,190 95,190" style="fill:white;stroke:black;stroke-width:0.1" />
<circle cx="100" cy="145" r="5" fill="red" />
<circle cx="100" cy="147.5" r="2.5" fill="yellow" />


</svg>
