<?xml version="1.0" encoding="utf-8"?>
<svg xmlns="http://www.w3.org/2000/svg" version="1.1" width="1000" height="800">

<polygon points=" 0,0 800,0 800,400 0,400" style="fill:lightblue;stroke:black;stroke-width:0.15" />
<polygon points=" -10,390 810,390 810,410 -10,410" style="fill:darkgrey;stroke:black;stroke-width:0.1" />
<polygon points=" 350,290 450,290 450,390 350,390" style="fill:white;stroke:black;stroke-width:0.1" />
<polygon points=" 380,240 420,240 420,290 380,290" style="fill:white;stroke:black;stroke-width:0.1" />
<polygon points=" 400,320 460,320 460,340 400,340" style="fill:white;stroke:black;stroke-width:0.1" />
<polygon points=" 600,190 800,190 800,210 600,210" style="fill:brown;stroke:black;stroke-width:0.1" />
<circle cx="780" cy="170" r="20" fill="red" />
<polygon points=" 580,140 620,140 620,190 580,190" style="fill:blue;stroke:black;stroke-width:0.1" />
<polygon points=" 0,190 200,190 200,210 0,210" style="fill:brown;stroke:black;stroke-width:0.1" />
<circle cx="180" cy="170" r="20" fill="blue" />
<polygon points=" 0,150 50,150 50,190 0,190" style="fill:green;stroke:black;stroke-width:0.1" />
<polygon points=" 95,150 105,150 105,190 95,190" style="fill:white;stroke:black;stroke-width:0.1" />
<circle cx="100" cy="145" r="5" fill="red" />
<circle cx="100" cy="147.5" r="2.5" fill="yellow" />
<polygon points=" -10,390 810,390 810,410 -10,410" style="fill:none;stroke:yellow;stroke-width:2" />
<text x="378" y="402" fill="yellow" >ground</text>
<text x="380" y="404" fill="yellow" >ground</text>
<text x="378" y="404" fill="yellow" >ground</text>
<text x="380" y="402" fill="yellow" >ground</text>
<text x="379" y="403" fill="black" >ground</text>
<polygon points=" 350,290 450,290 450,390 350,390" style="fill:white;stroke:black;stroke-width:0.1" />
<polygon points=" 380,240 420,240 420,290 380,290" style="fill:white;stroke:black;stroke-width:0.1" />
<polygon points=" 400,320 460,320 460,340 400,340" style="fill:white;stroke:black;stroke-width:0.1" />
<polygon points=" 350,290 450,290 450,390 350,390" style="fill:none;stroke:yellow;stroke-width:2" />
<text x="382" y="342" fill="yellow" >robot</text>
<text x="384" y="344" fill="yellow" >robot</text>
<text x="382" y="344" fill="yellow" >robot</text>
<text x="384" y="342" fill="yellow" >robot</text>
<text x="383" y="343" fill="black" >robot</text>
<polygon points=" 380,240 420,240 420,290 380,290" style="fill:white;stroke:black;stroke-width:0.1" />
<polygon points=" 400,320 460,320 460,340 400,340" style="fill:white;stroke:black;stroke-width:0.1" />
<polygon points=" 380,240 420,240 420,290 380,290" style="fill:none;stroke:yellow;stroke-width:2" />
<text x="385" y="267" fill="yellow" >head</text>
<text x="387" y="269" fill="yellow" >head</text>
<text x="385" y="269" fill="yellow" >head</text>
<text x="387" y="267" fill="yellow" >head</text>
<text x="386" y="268" fill="black" >head</text>
<polygon points=" 400,320 460,320 460,340 400,340" style="fill:none;stroke:yellow;stroke-width:2" />
<text x="419" y="332" fill="yellow" >arm</text>
<text x="421" y="334" fill="yellow" >arm</text>
<text x="419" y="334" fill="yellow" >arm</text>
<text x="421" y="332" fill="yellow" >arm</text>
<text x="420" y="333" fill="black" >arm</text>
<polygon points=" 600,190 800,190 800,210 600,210" style="fill:none;stroke:yellow;stroke-width:2" />
<text x="671" y="202" fill="yellow" >etagere1</text>
<text x="673" y="204" fill="yellow" >etagere1</text>
<text x="671" y="204" fill="yellow" >etagere1</text>
<text x="673" y="202" fill="yellow" >etagere1</text>
<text x="672" y="203" fill="black" >etagere1</text>
<circle cx="780" cy="170" r="20" fill="red" />
<polygon points=" 580,140 620,140 620,190 580,190" style="fill:blue;stroke:black;stroke-width:0.1" />
<circle cx="780" cy="170" r="20" fill="none" stroke="yellow" stroke-width="2" />
<text x="762" y="192" fill="yellow" >ball1</text>
<text x="764" y="194" fill="yellow" >ball1</text>
<text x="762" y="194" fill="yellow" >ball1</text>
<text x="764" y="192" fill="yellow" >ball1</text>
<text x="763" y="193" fill="black" >ball1</text>
<polygon points=" 580,140 620,140 620,190 580,190" style="fill:none;stroke:yellow;stroke-width:2" />
<text x="585" y="167" fill="yellow" >box1</text>
<text x="587" y="169" fill="yellow" >box1</text>
<text x="585" y="169" fill="yellow" >box1</text>
<text x="587" y="167" fill="yellow" >box1</text>
<text x="586" y="168" fill="black" >box1</text>
<polygon points=" 0,190 200,190 200,210 0,210" style="fill:none;stroke:yellow;stroke-width:2" />
<text x="71" y="202" fill="yellow" >etagere2</text>
<text x="73" y="204" fill="yellow" >etagere2</text>
<text x="71" y="204" fill="yellow" >etagere2</text>
<text x="73" y="202" fill="yellow" >etagere2</text>
<text x="72" y="203" fill="black" >etagere2</text>
<circle cx="180" cy="170" r="20" fill="blue" />
<polygon points=" 0,150 50,150 50,190 0,190" style="fill:green;stroke:black;stroke-width:0.1" />
<polygon points=" 95,150 105,150 105,190 95,190" style="fill:white;stroke:black;stroke-width:0.1" />
<circle cx="100" cy="145" r="5" fill="red" />
<circle cx="100" cy="147.5" r="2.5" fill="yellow" />
<circle cx="180" cy="170" r="20" fill="none" stroke="yellow" stroke-width="2" />
<text x="162" y="192" fill="yellow" >ball2</text>
<text x="164" y="194" fill="yellow" >ball2</text>
<text x="162" y="194" fill="yellow" >ball2</text>
<text x="164" y="192" fill="yellow" >ball2</text>
<text x="163" y="193" fill="black" >ball2</text>
<polygon points=" 0,150 50,150 50,190 0,190" style="fill:none;stroke:yellow;stroke-width:2" />
<text x="10" y="172" fill="yellow" >box2</text>
<text x="12" y="174" fill="yellow" >box2</text>
<text x="10" y="174" fill="yellow" >box2</text>
<text x="12" y="172" fill="yellow" >box2</text>
<text x="11" y="173" fill="black" >box2</text>
<polygon points=" 95,150 105,150 105,190 95,190" style="fill:none;stroke:yellow;stroke-width:2" />
<text x="78" y="172" fill="yellow" >candle</text>
<text x="80" y="174" fill="yellow" >candle</text>
<text x="78" y="174" fill="yellow" >candle</text>
<text x="80" y="172" fill="yellow" >candle</text>
<text x="79" y="173" fill="black" >candle</text>
<circle cx="100" cy="145" r="5" fill="red" />
<circle cx="100" cy="147.5" r="2.5" fill="yellow" />
<circle cx="100" cy="145" r="5" fill="none" stroke="yellow" stroke-width="2" />
<text x="85" y="152" fill="yellow" >fire</text>
<text x="87" y="154" fill="yellow" >fire</text>
<text x="85" y="154" fill="yellow" >fire</text>
<text x="87" y="152" fill="yellow" >fire</text>
<text x="86" y="153" fill="black" >fire</text>
<circle cx="100" cy="147.5" r="2.5" fill="yellow" />
<circle cx="100" cy="147.5" r="2.5" fill="none" stroke="yellow" stroke-width="2" />
<text x="96" y="152" fill="yellow" >.</text>
<text x="98" y="154" fill="yellow" >.</text>
<text x="96" y="154" fill="yellow" >.</text>
<text x="98" y="152" fill="yellow" >.</text>
<text x="97" y="153" fill="black" >.</text>


</svg>
