<?xml version="1.0" encoding="utf-8"?>
<svg xmlns="http://www.w3.org/2000/svg" version="1.1" width="1000" height="800">

<polygon points=" 100,100 700,100 700,500 100,500" style="fill:lightblue;stroke:black;stroke-width:0.15" />
<polygon points=" 80,500 740,500 740,510 80,510" style="fill:darkgrey;stroke:black;stroke-width:0.15" />
<polygon points=" 250,250 300,250 300,300 250,300" style="fill:black;stroke:black;stroke-width:0.15" />
<polygon points=" 400,350 450,350 450,370 400,370" style="fill:brown;stroke:black;stroke-width:0.15" />
<circle cx="400" cy="300" r="20" fill="red" />
<polygon points=" 500,400 540,400 540,450 500,450" style="fill:blue;stroke:black;stroke-width:0.15" />
<polygon points=" 80,500 740,500 740,510 80,510" style="fill:none;stroke:yellow;stroke-width:2" />
<text x="388" y="507" fill="yellow" >ground</text>
<text x="390" y="509" fill="yellow" >ground</text>
<text x="388" y="509" fill="yellow" >ground</text>
<text x="390" y="507" fill="yellow" >ground</text>
<text x="389" y="508" fill="black" >ground</text>
<polygon points=" 250,250 300,250 300,300 250,300" style="fill:black;stroke:black;stroke-width:0.15" />
<polygon points=" 250,250 300,250 300,300 250,300" style="fill:none;stroke:yellow;stroke-width:2" />
<text x="257" y="277" fill="yellow" >robot</text>
<text x="259" y="279" fill="yellow" >robot</text>
<text x="257" y="279" fill="yellow" >robot</text>
<text x="259" y="277" fill="yellow" >robot</text>
<text x="258" y="278" fill="black" >robot</text>
<polygon points=" 400,350 450,350 450,370 400,370" style="fill:none;stroke:yellow;stroke-width:2" />
<text x="414" y="362" fill="yellow" >box</text>
<text x="416" y="364" fill="yellow" >box</text>
<text x="414" y="364" fill="yellow" >box</text>
<text x="416" y="362" fill="yellow" >box</text>
<text x="415" y="363" fill="black" >box</text>
<circle cx="400" cy="300" r="20" fill="red" />
<polygon points=" 500,400 540,400 540,450 500,450" style="fill:blue;stroke:black;stroke-width:0.15" />
<circle cx="400" cy="300" r="20" fill="none" stroke="yellow" stroke-width="2" />
<text x="388" y="302" fill="yellow" >flower</text>
<text x="390" y="304" fill="yellow" >flower</text>
<text x="388" y="304" fill="yellow" >flower</text>
<text x="390" y="302" fill="yellow" >flower</text>
<text x="389" y="303" fill="black" >flower</text>
<polygon points=" 500,400 540,400 540,450 500,450" style="fill:none;stroke:yellow;stroke-width:2" />
<text x="498" y="427" fill="yellow" >blabla</text>
<text x="500" y="429" fill="yellow" >blabla</text>
<text x="498" y="429" fill="yellow" >blabla</text>
<text x="500" y="427" fill="yellow" >blabla</text>
<text x="499" y="428" fill="black" >blabla</text>


</svg>
