<?xml version="1.0" encoding="utf-8"?>
<svg xmlns="http://www.w3.org/2000/svg" version="1.1" width="1000" height="800">

<polygon points=" 0,0 900,0 900,500 0,500" style="fill:lightblue;stroke:black;stroke-width:0.15" />
<polygon points=" -10,490 910,490 910,510 -10,510" style="fill:darkgrey;stroke:black;stroke-width:0.1" />
<polygon points=" 430,270 450,270 450,490 430,490" style="fill:white;stroke:black;stroke-width:0.1" />
<polygon points=" 400,220 480,220 480,270 400,270" style="fill:lightgrey;stroke:black;stroke-width:0.1" />
<polygon points=" 390,270 490,270 490,280 390,280" style="fill:darkblue;stroke:black;stroke-width:0.1" />
<polygon points=" 480,225 495,225 495,265 480,265" style="fill:grey;stroke:black;stroke-width:0.1" />
<polygon points=" 425,340 450,340 450,420 425,420" style="fill:orange;stroke:black;stroke-width:0.1" />
<polygon points=" 440,360 510,360 510,380 440,380" style="fill:darkblue;stroke:black;stroke-width:0.1" />
<polygon points=" 510,357.5 522,357.5 522,382.5 510,382.5" style="fill:darkblue;stroke:black;stroke-width:0.1" />
<polygon points=" 510,345.5 535,345.5 535,357.5 510,357.5" style="fill:darkblue;stroke:black;stroke-width:0.1" />
<polygon points=" 510,382.5 535,382.5 535,394.5 510,394.5" style="fill:darkblue;stroke:black;stroke-width:0.1" />
<polygon points=" 860,450 910,450 910,490 860,490" style="fill:red;stroke:black;stroke-width:0.1" />
<polygon points=" 860,465 910,465 910,475 860,475" style="fill:green;stroke:black;stroke-width:0.1" />
<polygon points=" 880,450 890,450 890,490 880,490" style="fill:green;stroke:black;stroke-width:0.1" />
<polygon points=" 820,450 860,450 860,490 820,490" style="fill:brown;stroke:black;stroke-width:0.1" />
<polygon points=" 770,370 910,370 910,450 770,450" style="fill:darkgreen;stroke:black;stroke-width:0.1" />
<polygon points=" 800,290 880,290 880,370 800,370" style="fill:darkgreen;stroke:black;stroke-width:0.1" />
<circle cx="840" cy="280" r="10" fill="yellow" />
<circle cx="800" cy="360" r="10" fill="orange" />
<circle cx="880" cy="360" r="10" fill="turquoise" />
<circle cx="840" cy="360" r="10" fill="red" />
<polygon points=" 745,450 795,450 795,490 745,490" style="fill:white;stroke:black;stroke-width:0.1" />
<polygon points=" 745,465 795,465 795,475 745,475" style="fill:darkseagreen;stroke:black;stroke-width:0.1" />
<polygon points=" 765,450 775,450 775,490 765,490" style="fill:darkseagreen;stroke:black;stroke-width:0.1" />
<circle cx="760" cy="400" r="10" fill="pink" />
<circle cx="920" cy="400" r="10" fill="lightgreen" />
<polygon points=" 0,240 250,240 250,260 0,260" style="fill:brown;stroke:black;stroke-width:0.1" />
<circle cx="225" cy="215" r="25" fill="peru" />
<polygon points=" 0,180 20,180 20,240 0,240" style="fill:darkred;stroke:black;stroke-width:0.1" />
<polygon points=" 20,200 40,200 40,240 20,240" style="fill:green;stroke:black;stroke-width:0.1" />
<polygon points=" 117.5,200 132.5,200 132.5,240 117.5,240" style="fill:white;stroke:black;stroke-width:0.1" />
<circle cx="125" cy="192.5" r="7.5" fill="red" />
<circle cx="125" cy="196" r="4" fill="yellow" />
<polygon points=" 445,-30 455,-30 455,30 445,30" style="fill:brown;stroke:black;stroke-width:0.1" />
<polygon points=" 400,25 500,25 500,35 400,35" style="fill:brown;stroke:black;stroke-width:0.1" />
<polygon points=" 400,35 410,35 410,75 400,75" style="fill:brown;stroke:black;stroke-width:0.1" />
<polygon points=" 390,60 420,60 420,90 390,90" style="fill:yellow;stroke:black;stroke-width:0.1" />
<polygon points=" 490,35 500,35 500,75 490,75" style="fill:brown;stroke:black;stroke-width:0.1" />
<polygon points=" 480,60 510,60 510,90 480,90" style="fill:yellow;stroke:black;stroke-width:0.1" />


</svg>
