<?xml version="1.0" encoding="utf-8"?>
<svg xmlns="http://www.w3.org/2000/svg" version="1.1" width="1000" height="800">

<polygon points=" 0,0 900,0 900,500 0,500" style="fill:lightblue;stroke:black;stroke-width:0.15" />
<polygon points=" -10,490 910,490 910,510 -10,510" style="fill:darkgrey;stroke:black;stroke-width:0.1" />
<polygon points=" 350,340 450,340 450,490 350,490" style="fill:white;stroke:black;stroke-width:0.1" />
<polygon points=" 360,290 440,290 440,340 360,340" style="fill:lightgrey;stroke:black;stroke-width:0.1" />
<polygon points=" 350,340 450,340 450,350 350,350" style="fill:darkblue;stroke:black;stroke-width:0.1" />
<polygon points=" 440,295 455,295 455,335 440,335" style="fill:grey;stroke:black;stroke-width:0.1" />
<polygon points=" 425,375 450,375 450,455 425,455" style="fill:orange;stroke:black;stroke-width:0.1" />
<polygon points=" 400,395 470,395 470,415 400,415" style="fill:darkblue;stroke:black;stroke-width:0.1" />
<polygon points=" 470,392.5 482,392.5 482,417.5 470,417.5" style="fill:darkblue;stroke:black;stroke-width:0.1" />
<polygon points=" 470,380.5 495,380.5 495,392.5 470,392.5" style="fill:darkblue;stroke:black;stroke-width:0.1" />
<polygon points=" 470,417.5 495,417.5 495,429.5 470,429.5" style="fill:darkblue;stroke:black;stroke-width:0.1" />
<polygon points=" 860,450 910,450 910,490 860,490" style="fill:red;stroke:black;stroke-width:0.1" />
<polygon points=" 860,465 910,465 910,475 860,475" style="fill:green;stroke:black;stroke-width:0.1" />
<polygon points=" 880,450 890,450 890,490 880,490" style="fill:green;stroke:black;stroke-width:0.1" />
<polygon points=" 820,450 860,450 860,490 820,490" style="fill:brown;stroke:black;stroke-width:0.1" />
<polygon points=" 770,370 910,370 910,450 770,450" style="fill:darkgreen;stroke:black;stroke-width:0.1" />
<polygon points=" 800,290 880,290 880,370 800,370" style="fill:darkgreen;stroke:black;stroke-width:0.1" />
<circle cx="840" cy="280" r="10" fill="yellow" />
<circle cx="800" cy="360" r="10" fill="orange" />
<circle cx="880" cy="360" r="10" fill="turquoise" />
<circle cx="840" cy="360" r="10" fill="red" />
<polygon points=" 745,450 795,450 795,490 745,490" style="fill:white;stroke:black;stroke-width:0.1" />
<polygon points=" 745,465 795,465 795,475 745,475" style="fill:darkseagreen;stroke:black;stroke-width:0.1" />
<polygon points=" 765,450 775,450 775,490 765,490" style="fill:darkseagreen;stroke:black;stroke-width:0.1" />
<circle cx="760" cy="400" r="10" fill="pink" />
<circle cx="920" cy="400" r="10" fill="lightgreen" />
<polygon points=" 0,240 250,240 250,260 0,260" style="fill:brown;stroke:black;stroke-width:0.1" />
<circle cx="225" cy="215" r="25" fill="peru" />
<polygon points=" 0,180 20,180 20,240 0,240" style="fill:darkred;stroke:black;stroke-width:0.1" />
<polygon points=" 20,200 40,200 40,240 20,240" style="fill:green;stroke:black;stroke-width:0.1" />
<polygon points=" 117.5,200 132.5,200 132.5,240 117.5,240" style="fill:white;stroke:black;stroke-width:0.1" />
<circle cx="125" cy="192.5" r="7.5" fill="red" />
<circle cx="125" cy="196" r="4" fill="yellow" />
<polygon points=" 345,-30 355,-30 355,30 345,30" style="fill:brown;stroke:black;stroke-width:0.1" />
<polygon points=" 300,25 400,25 400,35 300,35" style="fill:brown;stroke:black;stroke-width:0.1" />
<polygon points=" 300,35 310,35 310,75 300,75" style="fill:brown;stroke:black;stroke-width:0.1" />
<polygon points=" 290,60 320,60 320,90 290,90" style="fill:yellow;stroke:black;stroke-width:0.1" />
<polygon points=" 390,35 400,35 400,75 390,75" style="fill:brown;stroke:black;stroke-width:0.1" />
<polygon points=" 380,60 410,60 410,90 380,90" style="fill:yellow;stroke:black;stroke-width:0.1" />


</svg>
